<?xml version="1.0" standalone="no"?>
<!DOCTYPE svg PUBLIC "-//W3C//DTD SVG 20010904//EN"
 "http://www.w3.org/TR/2001/REC-SVG-20010904/DTD/svg10.dtd">
<svg version="1.0" xmlns="http://www.w3.org/2000/svg"
 width="300.000000pt" height="300.000000pt" viewBox="0 0 300.000000 300.000000"
 preserveAspectRatio="xMidYMid meet">
<metadata>
Created by potrace 1.11, written by Peter Selinger 2001-2013
</metadata>
<g transform="translate(0.000000,300.000000) scale(0.100000,-0.100000)"
fill="#000000" stroke="none">
<path d="M1435 2785 c-28 -27 -32 -61 -11 -91 13 -19 12 -22 -20 -48 -28 -22
-34 -33 -34 -67 0 -78 81 -115 162 -73 22 11 33 13 41 5 6 -6 33 -11 61 -11
l50 0 -32 33 -32 33 22 22 22 22 -21 21 c-20 20 -21 20 -47 3 -25 -16 -29 -16
-43 -1 -15 14 -14 18 11 47 33 39 33 74 1 105 -34 35 -96 35 -130 0z m90 -35
c10 -16 -5 -50 -21 -50 -17 0 -28 24 -20 45 6 17 32 20 41 5z m-26 -153 c19
-21 20 -26 7 -36 -32 -27 -83 12 -57 43 18 21 24 20 50 -7z"/>
<path d="M1013 2722 l-32 -17 42 -85 c22 -47 43 -89 45 -95 3 -5 -4 -3 -14 6
-10 9 -59 37 -107 63 -82 44 -90 47 -122 36 -19 -6 -37 -15 -40 -20 -6 -10
122 -273 135 -278 5 -2 22 4 39 13 l31 15 -45 90 -45 89 78 -41 c42 -23 90
-50 106 -59 26 -16 31 -16 65 -2 20 8 37 16 39 18 5 4 -130 285 -137 285 -3
-1 -20 -9 -38 -18z"/>
<path d="M2000 2688 c-94 -27 -146 -145 -103 -235 37 -78 156 -114 220 -67 26
20 73 79 73 93 0 7 -125 71 -139 71 -8 0 -34 -50 -29 -55 2 -1 18 -10 37 -20
33 -17 34 -18 16 -31 -46 -34 -115 3 -115 62 0 93 84 148 138 91 12 -13 22
-29 22 -35 0 -7 16 -12 40 -12 48 0 53 18 17 70 -39 60 -111 87 -177 68z"/>
<path d="M2260 2454 c-36 -42 -80 -93 -98 -115 l-33 -39 28 -25 28 -24 37 42
c41 46 44 43 26 -32 -11 -50 -11 -52 17 -81 16 -17 32 -30 36 -30 4 0 10 25
14 57 9 76 14 85 37 77 27 -8 74 13 93 42 8 13 15 40 15 61 0 32 -7 44 -57 90
-32 29 -62 53 -68 52 -5 0 -39 -34 -75 -75z m114 -47 c23 -37 -36 -76 -64 -42
-11 13 -9 19 10 40 26 28 38 28 54 2z"/>
<path d="M562 2427 c-18 -18 -32 -38 -32 -44 0 -6 30 -74 68 -152 l67 -141 30
24 c28 22 29 27 19 54 -11 28 -9 33 32 73 41 41 44 42 67 26 23 -15 26 -14 52
14 16 16 27 31 24 33 -10 10 -277 146 -285 146 -6 0 -24 -15 -42 -33z m141
-139 c-15 -16 -29 -28 -33 -28 -6 0 -60 105 -60 116 0 2 27 -10 59 -28 l60
-33 -26 -27z"/>
<path d="M1320 2375 c-374 -77 -664 -374 -741 -760 -16 -83 -14 -276 5 -360
82 -376 360 -658 731 -741 114 -25 293 -23 408 4 354 86 621 353 709 709 31
124 30 313 0 437 -24 96 -90 245 -142 321 -135 197 -351 339 -593 390 -84 18
-288 18 -377 0z m421 -80 c35 -9 115 -41 177 -71 89 -44 128 -71 191 -130 217
-204 278 -454 155 -640 -86 -130 -259 -203 -413 -175 -137 25 -227 99 -330
267 -176 288 -255 385 -358 435 -42 21 -62 24 -163 24 l-115 0 -3 31 c-3 27 4
38 44 73 87 76 239 152 376 187 129 34 304 33 439 -1z m-772 -335 c71 -20 101
-78 65 -128 -20 -29 -46 -42 -118 -58 -111 -25 -151 -50 -196 -121 -28 -46
-45 -63 -61 -63 -20 0 -21 4 -17 43 9 75 66 194 122 254 69 73 130 95 205 73z"/>
<path d="M2445 2219 c-60 -44 -114 -84 -119 -89 -9 -9 83 -150 97 -150 5 0 19
8 31 17 l24 18 -29 41 c-28 41 -28 42 -9 59 11 10 22 16 24 14 1 -2 14 -21 28
-41 25 -39 29 -39 77 -1 2 1 -9 21 -24 43 -27 39 -28 41 -9 55 17 13 21 12 47
-17 15 -18 27 -36 27 -40 0 -13 17 -9 41 11 l24 19 -49 71 c-27 39 -54 71 -60
70 -6 0 -60 -37 -121 -80z"/>
<path d="M350 2161 c-22 -39 -42 -76 -45 -83 -3 -8 41 -40 122 -88 69 -41 130
-76 133 -78 8 -3 105 157 99 162 -50 38 -52 38 -81 -9 -30 -48 -39 -53 -58
-30 -9 11 -7 22 11 55 22 39 22 40 3 55 -30 22 -41 18 -65 -25 -25 -44 -26
-45 -52 -26 -18 14 -17 16 7 55 14 22 26 44 26 49 0 7 -42 32 -55 32 -2 0 -22
-31 -45 -69z"/>
<path d="M2590 1998 c-74 -31 -138 -59 -142 -60 -6 -3 52 -152 65 -164 3 -4
20 -1 36 6 l30 12 -20 45 c-21 49 -19 58 10 66 15 4 23 -4 36 -39 19 -50 16
-48 50 -32 29 13 30 17 10 65 -8 20 -14 37 -13 38 2 1 13 7 24 13 20 10 23 7
42 -39 l21 -50 31 16 c16 8 30 17 30 19 0 6 -67 156 -71 159 -2 2 -65 -23
-139 -55z"/>
<path d="M477 1893 c-3 -5 -10 -27 -16 -50 l-11 -42 -116 39 -115 39 -9 -23
c-22 -60 -24 -58 125 -109 77 -26 144 -46 150 -43 6 2 21 37 34 77 13 41 26
79 28 85 2 7 -10 17 -28 23 -38 13 -37 13 -42 4z"/>
<path d="M2655 1742 l-120 -17 3 -34 c1 -19 5 -37 7 -39 2 -3 44 0 92 7 47 6
88 10 89 8 2 -1 -35 -36 -82 -77 -65 -58 -84 -80 -83 -100 1 -58 0 -57 168
-36 l153 20 -6 34 c-3 19 -7 37 -10 40 -3 2 -48 -2 -101 -10 -52 -8 -92 -11
-88 -8 5 4 45 39 91 80 78 69 83 76 80 109 -3 34 -5 36 -38 38 -19 0 -89 -6
-155 -15z"/>
<path d="M165 1656 c-56 -134 76 -265 213 -211 75 30 113 99 98 179 -6 31 -11
35 -47 41 -44 8 -59 1 -41 -17 7 -7 12 -29 12 -49 0 -29 -6 -43 -26 -58 -58
-46 -144 -11 -144 57 0 23 8 44 22 59 l21 23 -24 0 c-13 0 -34 3 -47 6 -18 5
-25 0 -37 -30z"/>
<path d="M427 1244 c-4 -4 -4 -17 -1 -30 6 -24 1 -27 -66 -39 -49 -9 -72 -16
-68 -21 3 -2 37 2 76 10 l72 14 6 -24 c3 -13 4 -31 0 -39 -3 -9 0 -15 9 -15
19 0 20 42 3 105 -12 44 -18 52 -31 39z"/>
<path d="M2675 1203 c-5 -17 -16 -23 -39 -24 l-31 -2 30 -4 c16 -3 35 -12 41
-21 10 -13 17 -15 30 -6 26 15 29 34 6 34 -13 0 -22 8 -25 23 l-4 22 -8 -22z"/>
<path d="M305 1121 c-3 -6 3 -14 12 -20 14 -8 16 -12 6 -22 -7 -7 -13 -17 -13
-22 0 -4 6 -5 13 0 6 4 28 13 47 18 l34 11 -22 22 c-22 22 -66 30 -77 13z"/>
<path d="M2683 1122 c-35 -3 -40 -11 -22 -29 9 -9 7 -10 -10 -6 -29 7 -27 -5
4 -17 14 -5 25 -16 25 -25 0 -19 -14 -19 -30 0 -7 8 -16 15 -21 15 -17 0 -9
-34 13 -57 l21 -23 -37 0 c-30 0 -37 -3 -32 -15 3 -9 0 -15 -9 -15 -7 0 -17
-5 -20 -10 -8 -12 55 -40 87 -39 16 0 11 4 -17 14 -32 10 -35 13 -15 14 19 1
21 4 12 13 -20 20 -14 28 20 28 17 0 28 3 25 7 -4 3 -3 11 2 17 14 19 20 83 8
95 -8 8 -5 11 10 11 22 0 40 16 26 22 -5 2 -23 2 -40 0z m-18 -110 c-3 -3 -11
0 -18 7 -9 10 -8 11 6 5 10 -3 15 -9 12 -12z"/>
<path d="M402 1065 c-60 -14 -78 -27 -66 -47 5 -7 7 -21 6 -31 -2 -9 4 -20 12
-23 9 -3 16 -12 16 -20 0 -17 0 -17 41 3 18 9 28 18 22 20 -7 3 -20 0 -30 -6
-15 -7 -22 -5 -31 9 -15 25 -2 33 44 24 27 -5 35 -4 30 5 -4 6 -13 11 -21 11
-8 0 -26 5 -42 11 -22 8 -24 12 -13 19 8 6 27 10 42 10 33 0 58 9 58 21 0 11
-1 11 -68 -6z"/>
<path d="M500 1000 c0 -5 5 -10 10 -10 6 0 10 5 10 10 0 6 -4 10 -10 10 -5 0
-10 -4 -10 -10z"/>
<path d="M407 934 c-28 -15 -28 -34 -1 -34 14 0 13 -2 0 -16 -9 -8 -14 -20
-10 -25 3 -5 16 4 30 20 28 34 30 41 7 41 -15 0 -14 2 3 15 25 19 7 18 -29 -1z"/>
<path d="M2564 874 c5 -12 1 -14 -17 -9 -21 6 -21 6 3 -14 37 -31 70 -25 38 7
-9 9 -5 12 22 12 43 0 32 12 -16 16 -29 3 -35 0 -30 -12z"/>
<path d="M434 851 c-18 -11 -35 -24 -38 -30 -4 -5 -13 -8 -21 -4 -9 3 -15 -1
-15 -11 0 -22 19 -20 46 5 19 17 25 19 42 8 17 -10 23 -10 36 0 20 17 20 37 0
45 -20 8 -14 9 -50 -13z m41 -11 c3 -5 1 -10 -4 -10 -6 0 -11 5 -11 10 0 6 2
10 4 10 3 0 8 -4 11 -10z"/>
<path d="M2513 824 c-21 -9 -15 -34 11 -46 34 -15 58 -4 54 24 -3 23 -37 34
-65 22z m47 -19 c0 -8 -6 -15 -14 -15 -17 0 -28 14 -19 24 12 12 33 6 33 -9z"/>
<path d="M2375 780 c3 -5 11 -10 16 -10 6 0 7 5 4 10 -3 6 -11 10 -16 10 -6 0
-7 -4 -4 -10z"/>
<path d="M2480 777 c0 -7 6 -19 13 -26 10 -11 9 -13 -3 -9 -8 3 -21 -1 -28 -9
-8 -7 -18 -11 -23 -8 -14 9 -10 -7 6 -29 21 -28 19 -38 -7 -31 -18 5 -20 4 -8
-4 18 -13 50 -14 50 -3 0 5 -7 17 -15 28 -20 27 -19 40 3 21 10 -10 27 -17 38
-17 15 1 13 4 -9 16 -16 9 -27 18 -24 21 3 2 15 -1 27 -7 27 -14 39 -5 22 18
-7 9 -15 25 -18 35 -7 20 -24 23 -24 4z"/>
<path d="M540 769 c-28 -11 -40 -26 -40 -52 0 -21 12 -35 53 -61 15 -10 27
-27 27 -37 0 -12 7 -19 19 -19 15 0 18 -5 13 -22 -5 -21 -2 -20 27 9 38 36 34
53 -13 53 -24 0 -41 9 -69 38 -20 21 -37 43 -37 49 0 19 66 33 103 22 42 -12
47 -12 47 5 0 24 -84 33 -130 15z"/>
<path d="M2246 628 c-21 -34 -23 -45 -13 -53 7 -5 19 -25 26 -43 21 -52 46
-59 81 -23 29 29 40 61 20 61 -5 0 -10 -6 -10 -13 0 -19 -46 -60 -59 -53 -6 4
-7 14 -2 24 36 75 44 93 39 98 -7 6 -48 -58 -49 -77 0 -8 -7 1 -15 19 -12 28
-12 37 0 67 20 47 13 44 -18 -7z"/>
<path d="M2390 630 c0 -19 -2 -20 -15 -10 -9 7 -15 8 -15 2 0 -9 43 -42 55
-42 4 0 4 8 0 19 -5 15 -1 18 20 13 15 -2 25 0 25 7 0 7 -4 9 -10 6 -5 -3 -21
2 -35 11 -24 16 -25 16 -25 -6z"/>
<path d="M657 582 c-15 -17 -23 -42 -13 -42 11 0 76 31 76 36 0 4 -11 4 -24 2
-17 -4 -23 -1 -19 9 7 18 -1 16 -20 -5z"/>
<path d="M699 529 c-16 -16 -18 -23 -8 -35 6 -8 21 -14 33 -13 13 0 16 3 7 6
-11 4 -8 10 9 23 23 18 20 40 -6 40 -8 0 -23 -9 -35 -21z m21 -14 c-7 -9 -15
-13 -19 -10 -3 3 1 10 9 15 21 14 24 12 10 -5z"/>
<path d="M921 476 c-30 -32 -68 -39 -75 -14 -7 28 -39 19 -50 -15 -13 -37 8
-53 41 -32 39 26 44 16 18 -35 -33 -64 -19 -65 17 -1 24 43 30 48 55 44 28 -4
28 -4 5 10 -22 13 -22 14 -5 30 10 9 30 20 43 26 l25 10 -26 0 c-15 1 -35 -9
-48 -23z m-86 -36 c0 -7 -6 -15 -12 -17 -8 -3 -13 4 -13 17 0 13 5 20 13 18 6
-3 12 -11 12 -18z"/>
<path d="M2020 486 c0 -15 44 -113 57 -128 23 -26 33 -22 33 13 l0 31 31 -26
c31 -27 59 -34 59 -16 0 6 -5 10 -11 10 -6 0 -24 11 -41 25 -39 33 -58 32 -58
-2 l-1 -28 -16 30 c-9 17 -19 43 -22 59 -4 16 -12 31 -19 34 -6 2 -12 1 -12
-2z"/>
<path d="M2158 445 c-11 -54 37 -72 63 -23 11 21 11 22 -4 9 -15 -11 -18 -10
-27 13 -12 33 -26 33 -32 1z m35 -38 c-7 -11 -23 2 -23 19 0 12 2 12 14 2 8
-7 12 -16 9 -21z"/>
<path d="M1011 433 c-1 -17 6 -39 15 -48 15 -15 15 -20 -10 -64 -28 -53 -31
-61 -18 -61 5 0 17 18 27 40 10 22 28 51 40 63 12 12 25 36 29 52 l6 30 -24
-29 c-27 -33 -42 -28 -55 17 l-9 32 -1 -32z"/>
<path d="M1971 405 c0 -5 6 -18 13 -28 7 -9 11 -28 9 -41 -4 -18 0 -26 17 -31
28 -9 37 1 22 26 -10 16 -10 20 3 25 24 9 18 26 -7 19 -16 -6 -26 -1 -39 16
-10 13 -19 20 -18 14z"/>
<path d="M1799 359 c-6 -12 -9 -33 -6 -47 3 -13 -1 -40 -9 -58 -18 -42 -3 -52
35 -25 16 12 34 21 40 21 6 0 11 8 11 18 0 10 7 27 15 38 24 35 3 36 -26 2
-32 -39 -44 -34 -28 11 18 52 -8 85 -32 40z"/>
<path d="M1376 354 c-3 -9 -6 -27 -6 -40 0 -17 -6 -24 -19 -24 -21 0 -37 -17
-27 -27 3 -3 12 -1 19 5 19 16 27 5 27 -34 0 -18 5 -36 10 -39 7 -4 8 8 4 35
-5 31 -3 44 7 51 22 14 29 11 29 -15 0 -35 12 -86 20 -86 3 0 5 25 2 55 -3 31
0 61 6 68 11 13 11 41 0 52 -3 3 -10 -8 -16 -24 -7 -21 -18 -31 -31 -31 -17 0
-19 5 -14 35 6 36 0 47 -11 19z"/>
<path d="M1074 316 c-11 -47 10 -69 46 -46 11 7 12 15 4 37 -13 37 -41 42 -50
9z m39 -10 c6 -15 -1 -26 -15 -26 -4 0 -8 9 -8 20 0 23 15 27 23 6z"/>
<path d="M1152 308 c-7 -7 -12 -25 -12 -40 0 -23 4 -28 24 -28 18 0 25 7 30
32 8 40 0 49 -13 14 -6 -14 -15 -26 -21 -26 -13 0 -13 6 1 32 13 23 8 33 -9
16z"/>
<path d="M1237 283 c-11 -12 -17 -13 -17 -5 0 7 -4 10 -10 7 -13 -8 -13 -52
-1 -60 6 -3 15 5 22 17 7 13 16 26 22 29 5 4 8 12 6 18 -3 8 -10 5 -22 -6z"/>
<path d="M1655 270 c-4 -6 -10 -24 -14 -38 l-8 -27 -18 34 c-16 32 -19 33 -30
18 -11 -15 -13 -16 -19 -2 -3 8 -10 15 -16 15 -15 0 -12 -50 5 -85 15 -30 15
-24 0 38 -5 20 -5 20 9 -3 l15 -25 9 25 10 25 12 -27 c11 -23 18 -27 39 -22
51 11 61 15 61 24 0 5 -7 7 -16 3 -12 -4 -14 0 -12 22 3 29 -15 45 -27 25z
m20 -50 c3 -5 2 -10 -4 -10 -5 0 -13 5 -16 10 -3 6 -2 10 4 10 5 0 13 -4 16
-10z"/>
<path d="M1471 256 c-16 -20 3 -66 28 -66 23 0 34 25 21 50 -13 24 -36 32 -49
16z m39 -31 c0 -21 -17 -27 -24 -9 -10 25 -7 34 9 28 8 -4 15 -12 15 -19z"/>
</g>
</svg>
