<?xml version="1.0" encoding="utf-8"?>
<!-- Generator: Adobe Illustrator 24.1.2, SVG Export Plug-In . SVG Version: 6.00 Build 0)  -->
<svg version="1.1" id="Layer_1" xmlns="http://www.w3.org/2000/svg" xmlns:xlink="http://www.w3.org/1999/xlink" x="0px" y="0px"
	 viewBox="0 0 28.9 46.5" style="enable-background:new 0 0 28.9 46.5;" xml:space="preserve">
<style type="text/css">
	.st0{fill:#FFFFFF;}
</style>
<g>
	<path class="st0" d="M26.8,35.7c0,0.3-0.2,0.5-0.5,0.5H2.6c-0.3,0-0.5-0.2-0.5-0.5V8.8c0-0.3,0.2-0.5,0.5-0.5h23.7
		c0.3,0,0.5,0.2,0.5,0.5v0.4l0.6,0.1c0.5,0.1,1,0.3,1.5,0.4V6.2c0-3.4-2.8-6.2-6.2-6.2H6.2C2.8,0,0,2.8,0,6.2v34.1
		c0,3.4,2.8,6.2,6.2,6.2h16.5c3.4,0,6.2-2.8,6.2-6.2V8.6h-2.1L26.8,35.7L26.8,35.7z M11.9,4.1H17c0.3,0,0.5,0.2,0.5,0.5
		S17.3,5.2,17,5.2h-5.2c-0.3,0-0.5-0.2-0.5-0.5S11.6,4.1,11.9,4.1z M16.9,41.4c-0.2,0.9-0.9,1.6-1.9,1.9c-1.4,0.3-2.8-0.5-3.1-1.9
		c-0.1-0.4-0.1-0.8,0-1.2c0.2-0.9,0.9-1.6,1.9-1.9c1.4-0.3,2.8,0.5,3.1,1.9C17,40.7,17,41.1,16.9,41.4z"/>
	<g>
		<path class="st0" d="M10.8,20.3l0.3-4.6c0-0.3-0.1-0.7-0.4-0.9c-0.3-0.2-0.7-0.3-1.1-0.4c-1.9-0.5-3.8,0.7-4.3,2.6
			c-0.8,3.1-0.3,6.4,1.4,9.1c1.7,2.8,4.4,4.8,7.6,5.5c0.3,0.1,0.6,0.1,0.9,0.1c1.6,0,3.1-1.1,3.5-2.7c0-0.2,0.1-0.4,0.1-0.6
			c0-0.2,0-0.4,0-0.5c0-0.4-0.2-0.7-0.6-0.8l-4.3-1.8h-0.1c-0.4-0.1-0.7,0-1,0.3c0,0-0.2,0.3-0.4,0.5c-0.8-0.6-1.4-1.3-1.9-2.1
			c-0.5-0.8-0.8-1.7-1-2.6l0.7-0.1C10.5,21.2,10.8,20.8,10.8,20.3z"/>
		<path class="st0" d="M15.1,15.3l-0.3,1.4c1.5,0.4,2.9,1.4,3.7,2.7c0.8,1.3,1.1,2.9,0.7,4.4l1.4,0.3C21.5,20.2,19.1,16.3,15.1,15.3
			C15.2,15.3,15.1,15.3,15.1,15.3L15.1,15.3C15.1,15.3,15.1,15.3,15.1,15.3z"/>
		<path class="st0" d="M22.8,16.7c-1.5-2.5-4.1-4.4-7-5L15.5,13c2.5,0.6,4.7,2.2,6,4.4c1.3,2.1,1.7,4.7,1.1,7.1l1.4,0.4
			C24.7,22.1,24.3,19.1,22.8,16.7z"/>
	</g>
</g>
</svg>
