<?xml version="1.0" encoding="utf-8"?>
<!-- Generator: Adobe Illustrator 24.1.2, SVG Export Plug-In . SVG Version: 6.00 Build 0)  -->
<svg version="1.1" id="Layer_1" xmlns="http://www.w3.org/2000/svg" xmlns:xlink="http://www.w3.org/1999/xlink" x="0px" y="0px"
	 viewBox="0 0 108.8 104.4" style="enable-background:new 0 0 108.8 104.4;" xml:space="preserve">
<style type="text/css">
	.st0{fill:#01B0EE;}
	.st1{fill:#56B146;}
	.st2{fill:#9FDBEB;}
	.st3{fill:#89C76B;}
	.st4{fill:#C8E9F3;}
	.st5{opacity:0.56;fill:#B9DCA4;enable-background:new    ;}
</style>
<path class="st0" d="M12.7,65l0,0.1l0.1,0l0,0.3c0.2,1.6,0.2,2.4-0.2,2.5L12.2,68L12,68L11.9,68l-0.2-0.2c0.3-0.6,0.3-1.4,0.1-2.2
	l-0.2-0.7c0-0.1-1.3,0.1-4,0.7l-1.2,0.3L6.1,66c-0.3-0.1-0.4-0.2-0.4-0.2c0.3-0.2,0.6-0.4,1.1-0.5l0.7-0.2l3.8-0.8l0.1,0l-0.7-1.8
	c0-0.1,0.1-0.3,0.5-0.4l0.5,0l0.1,0.6l0.7,2.2L12.7,65z"/>
<path class="st0" d="M9.8,68.4l-0.1,0.3c-0.4,0.1-0.8,0.2-1.5,0.2L7.9,69c-0.4,0.1-0.7,0.4-0.9,0.7l-0.3,0.1
	c-0.1-0.1-0.1-0.2-0.1-0.3c-0.1-0.2,0.1-0.5,0.5-0.9l0.4-0.2l0.1-0.1l0,0c-0.9-0.4-1.4-0.7-1.6-1c0-0.2,0-0.3,0.1-0.4l0.3-0.1
	C8.2,66.5,9.4,67,9.8,68.4z M6.9,67.3l0.3,0.2c0.9,0.5,1.6,0.7,1.9,0.7l0,0C8.5,67.5,7.8,67.2,6.9,67.3z"/>
<path class="st0" d="M12.9,68.8c0.1,0.2-0.1,0.4-0.4,0.7c-0.5,0.2-1,0.2-1.7,0.2c-1.2,0.2-1.9,0.4-2.3,0.6l-0.3,0.2l0,0
	c0.1,0.2,1.3,0.7,3.6,1.3l0.2,0.2l-0.2,0.2c-0.4,0.1-1,0.1-1.8-0.2l-1-0.2c-0.5,0.2-0.7,0.4-0.6,0.7l0.1,0.2
	c0.1,0.2,0.4,0.4,0.9,0.8l-0.2,0.2l-0.1,0.1c-0.5,0-1-0.1-1.4-0.5L7.6,73c-0.2-0.5,0-1,0.6-1.4l0-0.1c-0.5-0.2-0.8-0.4-0.8-0.6
	c-0.2-0.4,0.2-0.8,1.1-1.2c0.8-0.3,2.3-0.6,4.4-0.9L12.9,68.8L12.9,68.8z"/>
<path class="st0" d="M11.4,73l0.1,0.2c0,0.1-0.1,0.2-0.4,0.4l-1,0.4c-0.3,0.1-0.6,0.4-0.9,0.7L9,74.8l-0.3,0l-0.1-0.1
	c-0.2-0.4,0.2-0.8,1.2-1.2l0.6-0.3C11.1,73,11.4,72.9,11.4,73z M14.7,71.5l0.1,0.2c0.1,0.2,0,0.4-0.3,0.6l-0.2,0.1
	c-0.2,0-0.3,0-0.4-0.2c-0.1-0.1,0.1-0.3,0.3-0.6C14.5,71.4,14.7,71.4,14.7,71.5z"/>
<path class="st0" d="M11.9,73.8L12,74c-0.1,0.2-0.2,0.4-0.4,0.5l-0.2,0.1l-1,0.5l0,0c1.1-0.2,1.6-0.1,1.8,0.1
	c0.1,0.2-0.4,0.6-1.3,1.3c-0.3,0.3-0.4,0.5-0.3,0.7l0.1,0.1l-0.1,0.2l-0.2,0.1c-0.1,0.1-0.3,0-0.5-0.3l-0.1-0.2
	c0-0.2,0.2-0.5,0.4-0.8c0.2-0.2,0.5-0.5,1-0.8c0,0-0.3,0-0.8,0c-0.8,0-1.2-0.1-1.3-0.2C9,75.3,9.3,75,9.9,74.7l1.7-0.8L11.9,73.8z"
	/>
<path class="st0" d="M13.9,77.8c0,0.7-0.3,1.2-0.8,1.5L13,79.4c-0.8-0.1-1.2-0.3-1.5-0.7l-0.1-0.4c-0.6,0.3-1.1,0.8-1.4,1.2
	l-0.6,0.5c-0.3,0.2-0.5,0.3-0.7,0.2c-0.1,0-0.2-0.1-0.3-0.1L8.4,80l0-0.3c0-0.2,0-0.4,0.2-0.8c0.3-0.3,0.5-0.3,0.5,0.1
	c-0.4,0.9,0.1,0.6,1.2-0.7l0.9-0.6C12.6,77,13.5,77,13.9,77.8z M12.2,78l0,0.2c0.2,0.3,0.5,0.4,0.9,0.5c0.2-0.2,0.2-0.4,0.1-0.6
	C12.9,77.8,12.5,77.8,12.2,78z"/>
<path class="st0" d="M20.9,81.4l-0.3,0.6l0.1,0l0,0.1l-0.4,0.3c-0.1,0.1-0.2,0-0.4-0.2l0.1-0.1c-0.4-0.2-0.7-0.4-1.1-0.4l0-0.2
	l0,0.1l-0.1,0l-1.1-0.1l0.1-0.1l0.5,0l-0.1-0.1c-0.2,0.1-0.3,0.1-0.4,0c-0.3,0.2-0.7,0.3-1.1,0.3c-0.6,0.1-1.2,0.3-1.6,0.6l-0.1,0.1
	c-0.1,0.3-0.1,0.6,0.1,0.9l0.3,0.4c0.3,0.5,1.1,1.2,2.4,2.2c0.1,0.1,0.3,0.2,0.5,0.3l0.1,0.4c0.1-0.1,0.2-0.1,0.3,0l0.1,0.1
	c-0.2,0.2-0.4,0.2-0.5,0l-0.1,0l0,0.1l-0.1,0l-0.9-0.6l0-0.1c-0.2,0.1-0.3,0-0.5-0.3l0-0.1l0-0.1L16,85.8l0-0.1L16,85.6l-0.4-0.2
	l0-0.1l0-0.1l-0.9-0.7l0.1-0.1l-0.7-0.5c-0.4-1.1-0.1-2,0.9-2.7c1.7-0.6,3.2-0.7,4.5-0.3C20.2,80.9,20.6,81.1,20.9,81.4z M16.1,81.5
	l-0.1,0.2l0.3-0.2L16.1,81.5z M16.4,81.5c0.2,0.1,0.5,0,1.1-0.1l0-0.1C16.9,81.4,16.6,81.4,16.4,81.5z M18.7,86.8l0.1,0.3l-0.1,0.1
	l-0.1-0.1c-0.1,0.1-0.2,0.1-0.3,0l-0.2-0.3l0.1,0c0.1,0.1,0.2,0.1,0.2,0.1l0-0.1l0.1,0L18.7,86.8z M19.4,87.2l0.2,0.3l-0.1,0.1
	l-0.6-0.5L19.4,87.2z"/>
<path class="st0" d="M20.9,86.8l0.1,0.3c-0.3,0.3-0.7,0.5-1.2,0.8l-0.4,0.3c-0.3,0.3-0.5,0.7-0.5,1.1l-0.2,0.2
	c-0.1-0.1-0.2-0.1-0.2-0.2c-0.1-0.1-0.1-0.5,0.1-1.1l0.3-0.4l0.1-0.1l0,0c-1,0.1-1.6,0-1.9-0.2c-0.1-0.2-0.1-0.3-0.1-0.4l0.2-0.2
	C18.6,85.8,19.9,85.8,20.9,86.8z M17.8,87.1l0.3,0c1.1,0,1.8,0,2.1-0.2l0,0C19.3,86.6,18.5,86.6,17.8,87.1z"/>
<path class="st0" d="M22.5,88.4c0.2,0.3,0.2,0.6-0.1,0.8c-0.2,0.1-0.3,0.1-0.4,0.1L22,89.1l-2.2,1.2l-0.3-0.2L19.4,90
	c0-0.5,0.3-1.1,0.8-1.6l0.2-0.2c0.3-0.3,0.5-0.5,0.6-0.4l0.1,0.1c0.1,0.1-0.1,0.6-0.7,1.3l0,0C21.6,88.5,22.3,88.2,22.5,88.4z"/>
<path class="st0" d="M24.1,89.9l0.2,0.1c0.1,0.1,0.2,0.3,0.1,0.6l-0.2,0.3c-0.1,0.1-0.5,0.3-1.1,0.6c-0.2,0.2-0.3,0.3-0.4,0.2
	l-0.1-0.1l0-0.4l0,0c0.1-0.1,0.5-0.3,1.1-0.6l0,0c-0.8,0-1.3,0.2-1.6,0.6l0,0c-0.1,0.2-0.2,0.3-0.1,0.4l0.2,0.1
	c0.2,0.1,0.8,0.4,1.9,0.8l0.1,0.1l-0.1,0.1c-0.7,0.1-1.4-0.1-2.1-0.4L21.6,92c-0.4-0.4-0.4-0.9,0-1.3l0.1-0.2
	c0.4-0.5,1.1-0.7,2.1-0.7L24.1,89.9z"/>
<path class="st0" d="M27.4,92.5c0.7,0.9,0.8,1.9,0.2,2.8c-0.8,0.3-1.3,0.3-1.6,0.1c-0.4-0.3-0.5-0.8-0.2-1.6
	c-0.1-0.1,0.1-0.4,0.4-0.9C26.5,92.3,26.9,92.2,27.4,92.5z M26.6,93.2l-0.3,0.8l0.1-0.6c-0.2,0.7-0.2,1.1-0.1,1.3
	c0.6,0.1,0.9,0,1-0.2c0.3-0.5,0.2-1-0.2-1.5C26.9,93,26.7,93,26.6,93.2z"/>
<path class="st0" d="M33.1,91.6c0.2,0.1,0.3,0.3,0.2,0.6c-0.1,0.1-0.4,0.1-0.9,0c-0.7,0.3-1.4,0.9-2.1,1.7L30.3,94l0,0
	c0.9,0.3,1.5,0.5,1.7,0.6l0.1,0l0,0.1c-0.1,0.2-0.3,0.2-0.5,0l0,0.1l0,0.1l0,0l-1.7-0.4L29.6,95l-0.1,0l0,0.1l-0.4,0.7
	c-0.3,0.5-0.6,1.1-0.9,1.7l0,0c0,0.2-0.1,0.4-0.3,0.7l0,0.1c-0.1,0.1-0.2,0.2-0.4,0.3c-0.2-0.2-0.3-0.5-0.2-0.6c0.1,0,0.2,0,0.2-0.1
	l1.8-3.3c-0.1-0.1-0.5,0-1.2,0c-0.1-0.1-0.1-0.3,0.1-0.7c0.4-0.1,1-0.1,1.6,0C31.3,92,32.4,91.2,33.1,91.6z"/>
<path class="st0" d="M37.8,93.8C38,94,38,94.2,38,94.5l-0.1,0.3c-0.2,0.2-0.4,0.4-0.5,0.6l0,0.7l-0.1,0.3c-0.1,0.2-0.4,0.4-0.9,0.7
	c-0.4,0.7-0.6,1-0.6,1l0,0.1l-0.9,1.6l0,0.1l0,0.1c-0.5,1.1-0.9,1.6-1.1,1.5c-0.3-0.2-0.3-0.4-0.3-0.6l2.2-3.9l-0.1,0
	c-1-0.5-1.5-1.6-1.5-3.5l0-0.1l0.2-0.2l0.1,0c0.2,0.1,0.3,0.7,0.3,1.7c0.2,0.6,0.6,1,0.9,1.2l0.4,0.2C37.1,94.5,37.6,93.8,37.8,93.8
	z"/>
<path class="st0" d="M38,98.1c1,0.7,1.3,1.6,0.9,2.6c-0.7,0.4-1.2,0.6-1.5,0.5c-0.5-0.2-0.7-0.7-0.6-1.5c-0.1,0,0-0.4,0.1-1
	C37.1,98.1,37.5,97.9,38,98.1z M37.4,99l-0.1,0.9l0-0.6c0,0.7,0,1.1,0.2,1.3c0.5-0.1,0.9-0.2,0.9-0.4c0.1-0.5-0.1-1-0.6-1.4
	C37.7,98.7,37.5,98.8,37.4,99z"/>
<path class="st0" d="M40.3,98.9l0.2,0.1l0.1,0.3l0,0.1c-0.4,0.7-0.6,1.2-0.7,1.5v0.5l0.1,0c0.5,0.1,0.9-0.5,1.3-1.9l0.2-0.1l0,0
	c0.2,0,0.2,0.2,0.2,0.5l-0.3,1.1l-0.3,1.1l-0.3,0.2l-0.3-0.2c-0.2,0.2-0.5,0.2-0.7,0.1c-0.6-0.2-0.8-0.7-0.5-1.6l0-0.1
	C39.6,99.8,39.9,99.3,40.3,98.9z"/>
<path class="st0" d="M44,99.7c0.3,0.2,0.4,0.4,0.3,0.7c-0.1,0.2-0.2,0.3-0.3,0.3l-0.2-0.1l-1.3,2.1l-0.4,0l-0.1,0
	c-0.2-0.5-0.3-1.1-0.1-1.8l0.1-0.2c0.1-0.4,0.2-0.7,0.3-0.6l0.1,0c0.2,0,0.2,0.5,0,1.5l0.1,0C43.2,100.3,43.7,99.7,44,99.7z"/>
<path class="st0" d="M49.1,97L49.1,97c0.2,0.1,0.3,0.2,0.3,0.4l-0.1,0.1l0,0.1c0,0.1,0.1,0.2,0.1,0.2l-0.1,0.1l0,0.2l0,0.1l0,0.1
	c-0.1,0-0.2,0.5-0.4,1.6l0,0.2l0,0l0,0.2c1.2-0.1,1.9-0.3,1.9-0.6c0.2-1.4,0.5-2,0.7-2l0,0c0.3,0,0.4,0.3,0.4,0.9l-0.2,0.4
	c0.1,0,0.1,0.1,0.2,0.4L52,99l0,0.1l0,0.1c-0.1,0.2-0.2,0.4-0.4,0.5c-0.1,0.2-0.1,0.6-0.2,1.2l-0.1,0.6l-0.1,0l0,0.2l-0.1,0.2
	l0.1,0.1l0,0.1l-0.1,0l0,0.1c0.1,0,0.1,0.4,0.2,1.1l0.4,1.1c0,0.1-0.1,0.1-0.3,0.1c-0.6-0.1-0.9-1.4-0.7-4l0-0.3l-0.2,0l-1.5,0.4
	l0,0.5l0,0.3l-0.1,0l0.1,0.1l0,0.1l-0.1,0l0,0.1c0,0,0.1,0.4,0.2,1.2l0.2,0.9l0,0l-0.1,0.2c-0.4,0-0.7-0.7-0.7-2l0-1.4l-0.3,0.1
	l0-0.1c-0.6,0.2-0.9,0.4-0.9,0.5c0,0.1-0.1,0.2-0.3,0.2c0-0.1-0.1-0.3-0.4-0.6l0-0.2c0-0.1,0.7-0.2,1.9-0.5l0.1,0l0.1-0.8
	C48.7,98,48.9,97.2,49.1,97z"/>
<path class="st0" d="M53.3,101c1.1,0.4,1.7,1.1,1.7,2.2c-0.5,0.6-0.9,1-1.3,1c-0.5,0-0.8-0.4-1.1-1.2c-0.1,0-0.2-0.3-0.2-1
	C52.4,101.3,52.7,101,53.3,101z M53,102l0.2,0.9l-0.2-0.5c0.2,0.7,0.4,1,0.7,1.2c0.5-0.3,0.7-0.5,0.7-0.7c-0.1-0.6-0.4-0.9-1-1.1
	C53.1,101.7,53,101.8,53,102z"/>
<path class="st0" d="M55.7,100.5c0.4,0,0.8,0.6,1.1,1.8l0.1,0c0.1-0.9,0.3-1.4,0.6-1.4c0.3,0.1,0.7,0.7,1.2,1.9
	c0.1,0.2,0.4,0.5,0.7,0.8l0,0.1c0,0.2,0,0.4-0.1,0.5c-0.2,0-0.6-0.4-1.1-1.3c-0.2-0.6-0.4-0.9-0.5-1.1c-0.1,0.1-0.3,0.8-0.5,1.9
	l0,0.1l-0.1,0c-0.2-0.1-0.5-0.8-0.9-2.2l0-0.1l0,0l-0.1,0.5l0,0.3c0,0.8,0.3,1.6,0.7,2.6l0,0.2l-0.1,0c-0.5-0.2-0.9-1.2-1.1-3l0-0.3
	C55.4,101.3,55.5,100.8,55.7,100.5z"/>
<path class="st0" d="M60.5,100.6l0.2,0c0.2,0,0.4,0.1,0.5,0.3l0,0.3c0,0.2-0.1,0.6-0.3,1.2c0,0.3,0,0.4-0.1,0.4l-0.2,0l-0.3-0.3
	l0-0.1c0-0.1,0.1-0.6,0.3-1.2l0-0.1c-0.5,0.6-0.7,1.1-0.7,1.6l0,0.1c0,0.2,0.1,0.3,0.3,0.4l0.2,0c0.2,0,0.8-0.3,1.9-0.8l0.1,0l0,0.1
	c-0.4,0.6-1,1-1.7,1.2l-0.4,0c-0.6,0-0.9-0.3-1-0.8l0-0.2c-0.1-0.6,0.2-1.3,0.9-2.1L60.5,100.6z"/>
<path class="st0" d="M66.6,96.3c0.4,0.1,0.6,0.3,0.7,0.6c0.1,0.5-0.1,1.6-0.8,3.4l0.5,0.3l0.1,0c0.5-0.4,1.1-1.2,1.7-2.3
	c0-0.2,0.1-0.3,0.2-0.4c0.3,0.1,0.5,0.3,0.6,0.5l0,0.2c0,0.1-0.1,0.3-0.5,0.6l-0.9,1.5c0.2,0.1,0.4,0.1,0.4,0.2l0.1,0.4l-0.1,0.2
	l-0.1,0c-0.2,0.1-0.6,0.1-1,0c-1,1-1.6,1.5-2,1.6l0-0.1l0,0.1c-0.4,0-0.6-0.2-0.8-0.6c0-0.1,0.3-0.9,1-2.2l0.1-0.3l-0.2-0.3
	l-0.1-0.5c-0.2-0.8-0.1-1.6,0.5-2.4C66.2,96.6,66.4,96.4,66.6,96.3z M65.8,102L65.8,102c0.6-0.5,0.9-0.8,0.9-0.9l-0.4-0.3
	C66.3,100.8,66.1,101.2,65.8,102z M66,99.5L66,99.5c0.5-1,0.6-1.7,0.6-2.1l0,0c-0.3,0.1-0.5,0.5-0.6,1.3L66,99.5z"/>
<path class="st0" d="M72.4,95.2l0.2-0.1c0.1-0.1,0.6,0.6,1.4,1.9l0.2,0.2l0.5-0.3c0.8-0.4,1.2-0.4,1.3-0.2l0,0.2l-0.1,0L75.8,97
	l-0.1,0l0,0l-0.1,0.1l0-0.1l0,0.1l-0.1,0l0-0.1l-0.9,0.6c0.5,0.6,0.9,1.1,1,1.3c0,0.2-0.1,0.4-0.2,0.5c-0.3,0.2-0.9,0.1-1.6-0.3
	c-0.2-0.1-0.4-0.3-0.4-0.4c-0.1-0.3,0-0.7,0.5-1.3l-0.1-0.1c-0.6-0.8-1-1.4-1.2-1.8l-0.1-0.3L72.4,95.2z M74,98.8L74,98.8
	c0.4,0.2,0.7,0.2,0.8,0.1l0.1,0c-0.4-0.6-0.6-0.8-0.7-0.8l-0.1,0l-0.1,0.2C74,98.4,74,98.6,74,98.8z"/>
<path class="st0" d="M74.8,92c0.2-0.1,0.4,0,0.7,0.3l0.1,0.1c-0.2,0.8,0.3,2.1,1.3,3.9l0.3,0.5l0.2,0.1c0-1.3,0.1-2,0.3-2.1
	c0.5-0.3,1.4,0.3,2.9,1.8c0.4,0.3,0.8,0.4,1.2,0.3l0,0.1l-0.1,0.6l-0.2,0.1c-0.4,0.2-1.4-0.4-3-1.9l-0.3,0c-0.1,0.1-0.1,0.8-0.1,2.2
	l-0.2,0.2c-0.5-0.1-1.1-0.6-1.7-1.7c-0.9-1.9-1.4-3.3-1.6-4.3L74.8,92z"/>
<path class="st0" d="M80.3,93.1l0.2-0.1c0.2-0.1,0.4-0.1,0.6,0.1l0.2,0.3c0.1,0.2,0.2,0.6,0.3,1.2c0.1,0.2,0.2,0.4,0.1,0.4l-0.1,0.1
	L81,95l0,0c-0.1-0.1-0.2-0.5-0.3-1.2l0,0c-0.2,0.8-0.1,1.3,0.1,1.7l0,0c0.1,0.2,0.2,0.2,0.4,0.2l0.2-0.1c0.2-0.1,0.6-0.6,1.3-1.6
	l0.1-0.1l0.1,0.1c-0.1,0.7-0.4,1.3-1,1.9l-0.3,0.2c-0.5,0.3-0.9,0.1-1.2-0.3l-0.1-0.2c-0.3-0.5-0.4-1.3-0.1-2.3L80.3,93.1z"/>
<path class="st0" d="M85.4,84L85.4,84L85.4,84l0.5-0.4l0.2-0.1l0.1-0.2l0.1,0.1l-0.1,0.1l0,0l0,0.1l0,0l-0.1,0l0,0l0,0.1l0,0
	l-0.3,0.1l0,0.2l0,0l0-0.1l0,0l-0.1,0.1l0.1,0.1l-0.2,0.2l-0.2-0.1l0,0.3l0,0l-0.2,0c0.1,0.1,0.1,0.2,0.1,0.2l-0.2,0l0,0l-0.1,0
	l-0.1,0.1c0.2,0.2,0.2,0.3,0.2,0.4l0,0l-0.1-0.2l-0.1,0.1l0.1,0.1l-0.1,0.1c0,0-0.1,0-0.2-0.1l0,0c0.1,0.1,0.1,0.3-0.1,0.5
	c0.1,0.1,0.1,0.2,0.1,0.2l-0.1,0.1l-0.1-0.1l-0.1,0.1l0.1,0l0,0l0,0.2l-0.1,0.1l-0.2,0L84,86.5l0.1,0l0.1,0.1
	c-0.3,0.5-0.5,0.9-0.6,1.4l0.5,0.2l0.1,0.1l0,0.8l0.3,1l0.1,0.1l0,0c0.2-0.8,0.9-2.1,2-3.8l0.2,0.1c0.3,0.3,0.2,0.7-0.2,1.2l-0.1,0
	l-0.7,1.2l-0.1,0c0,0.1-0.1,0.4-0.3,0.9l0.1,0.2l0,0l0.2,0c0.1,0.1,0.1,0.2-0.1,0.4c-0.3,0.3-0.7,0.3-1-0.1l-0.1,0.1l0.5,0.7
	l0.2,0.2c0.3,0.3,0.6,0.3,1-0.1l0.3-0.2c0.7-0.6,1.1-1.5,1.3-2.5l0.1-0.1c0,0,0.2,0,0.4,0.2l0,0l0.3,0.2l0,0l-0.1,0.2l-0.1,0
	c0.1,0.1,0.1,0.2,0.1,0.2l-0.1,0c0,0.5-0.4,1.3-1.3,2.4c-0.5,0.5-1.1,0.6-1.7,0.3l-0.6-0.5c-0.5-0.6-0.9-1.5-1.3-2.7l-0.1-0.1
	L83.3,89l0,0.1c-0.2-0.1-0.4-0.1-0.5-0.3l-0.1-0.1c0-0.3,0.2-0.8,0.5-1.3l0.1,0c0.1-0.2,0.1-0.3,0.1-0.4l0.1,0l1-1.7l0.1,0l0.3-0.6
	l0,0L85.4,84z"/>
<path class="st0" d="M87.9,86.6l0.1-0.1c0.3,0,0.4,0.1,0.6,0.2l0.2,0.2l0.9,0.7l0,0c-0.5-0.9-0.7-1.5-0.5-1.7
	c0.1-0.2,0.7,0.1,1.7,0.8c0.4,0.2,0.6,0.2,0.7,0l0.1-0.2l0.3,0l0.2,0.2c0.1,0.1,0.1,0.3-0.1,0.6l-0.1,0.1c-0.2,0.1-0.5,0-0.9-0.1
	c-0.2-0.1-0.6-0.3-1.1-0.6c0,0,0.1,0.3,0.3,0.7c0.3,0.7,0.4,1.2,0.3,1.3c-0.1,0.1-0.5,0-1.1-0.5L88,86.9L87.9,86.6z"/>
<path class="st0" d="M91,82.8L91,82.8l0.2-0.1c0.7,0.7,1.3,1.7,1.7,2.8l0,0.4l0,0c-1,0-1.9-0.4-2.6-1l0-0.1c0.1-0.2,0.5,0,1.1,0.4
	c0.4,0.2,0.7,0.2,0.7,0.2c0-0.3-0.4-1-1.2-2.3L91,82.8z"/>
<path class="st0" d="M88.6,80.4l0.1-0.1c0.2-0.2,0.4-0.2,0.7,0l0.2,0.1c0.1,0.1,0.1,0.3,0,0.4c-0.1,0.1-0.3,0.1-0.7,0
	C88.6,80.6,88.5,80.5,88.6,80.4z M91.4,82.6l0.2-0.2c0.1,0,0.3,0,0.6,0.1l0.8,0.7c0.3,0.2,0.7,0.4,1.1,0.5l0.1,0.1l0.1,0.3l-0.1,0.1
	c-0.2,0.3-0.8,0.2-1.6-0.5l-0.5-0.4C91.6,82.9,91.4,82.7,91.4,82.6z"/>
<path class="st0" d="M92.8,80.5c0.3-0.2,0.5-0.2,0.8-0.1c0.1,0.2,0.2,0.3,0.1,0.3l-0.2,0.1l1.5,2l-0.2,0.3l-0.1,0.1
	c-0.5,0.1-1.1-0.1-1.7-0.6l-0.2-0.1c-0.4-0.3-0.5-0.4-0.5-0.5l0.1-0.1c0.1-0.2,0.6,0,1.4,0.5l0,0C93,81.4,92.7,80.7,92.8,80.5z"/>
<path class="st0" d="M93.8,79.2c0.9-0.8,1.8-0.9,2.7-0.3c0.3,0.8,0.4,1.3,0.2,1.6c-0.3,0.4-0.8,0.5-1.6,0.3c0,0.1-0.4,0-0.9-0.3
	C93.7,80.1,93.5,79.7,93.8,79.2z M94.6,80l0.9,0.3l-0.6-0.1c0.7,0.2,1.1,0.2,1.3,0c0-0.6,0-0.9-0.2-1c-0.5-0.2-1-0.1-1.5,0.3
	C94.4,79.7,94.4,79.8,94.6,80z"/>
<path class="st0" d="M94.9,77.3l0.1-0.1c0.2-0.1,0.5,0,0.6,0l0.2,0.2l1,0.5l0,0c-0.7-0.8-1.1-1.3-0.9-1.5c0.1-0.2,0.7-0.1,1.9,0.3
	c0.4,0.1,0.6,0,0.7-0.1l0-0.2l0.2-0.1l0.2,0.1c0.1,0.1,0.1,0.3,0.1,0.6L99,77.1c-0.2,0.1-0.5,0.2-0.9,0.1c-0.3,0-0.7-0.1-1.3-0.3
	c0,0,0.1,0.2,0.5,0.6c0.5,0.6,0.7,1,0.6,1.2c-0.1,0.2-0.5,0.1-1.2-0.2L95,77.5L94.9,77.3z"/>
<path class="st0" d="M96,74.3c0.2-0.4,0.9-0.5,2.1-0.2l0-0.1c-0.8-0.5-1.1-0.9-0.9-1.2c0.2-0.2,0.9-0.3,2.2-0.2
	c0.2,0,0.6-0.1,1.1-0.2l0.1,0c0.2,0.1,0.3,0.2,0.4,0.4c-0.1,0.2-0.6,0.3-1.6,0.4c-0.6-0.1-1-0.1-1.2,0c0.1,0.1,0.6,0.6,1.5,1.3
	l0,0.1l-0.1,0.1c-0.1,0.1-0.9,0-2.4-0.2l-0.1,0l0,0l0.5,0.3l0.2,0.1c0.7,0.3,1.6,0.5,2.7,0.6l0.2,0.1l0,0.1
	c-0.4,0.4-1.5,0.2-3.2-0.4l-0.2-0.1C96.5,74.9,96.2,74.6,96,74.3z"/>
<path class="st0" d="M98.3,70l0.1-0.2c0.1-0.2,0.2-0.3,0.5-0.3l0.3,0.1c0.2,0.1,0.5,0.3,0.9,0.8c0.2,0.1,0.4,0.2,0.3,0.3l-0.1,0.1
	l-0.4,0.2l-0.1,0c-0.1-0.1-0.5-0.3-0.9-0.8l-0.1,0c0.3,0.7,0.7,1.2,1.1,1.3l0,0c0.2,0.1,0.3,0,0.4-0.1l0.1-0.2
	c0.1-0.2,0.1-0.9,0.1-2l0-0.1l0.1,0c0.3,0.6,0.4,1.3,0.3,2.1l-0.1,0.3c-0.3,0.5-0.7,0.7-1.2,0.5L99.7,72c-0.6-0.2-1.1-0.8-1.4-1.8
	L98.3,70z"/>
<path class="st0" d="M98.7,68.5l0-0.2c0.2-0.1,0.4-0.1,0.6-0.1l0.2,0.1l1.1,0.3l0,0c-0.9-0.6-1.3-1-1.2-1.3c0.1-0.2,0.7-0.2,1.9-0.1
	c0.4,0,0.6-0.1,0.7-0.3l0-0.2l0.2-0.1l0.2,0.1c0.1,0,0.2,0.2,0.2,0.5l0,0.2c-0.2,0.2-0.5,0.3-0.9,0.3c-0.3,0-0.7,0-1.3-0.1
	c0,0,0.2,0.2,0.6,0.5c0.6,0.5,0.9,0.9,0.8,1c-0.1,0.2-0.5,0.2-1.2,0l-1.8-0.5L98.7,68.5z"/>
<path class="st0" d="M97.8,64.8l0-0.2c0-0.1,0.8-0.1,2.3,0.1l0.3,0l0.1-0.6c0.2-0.8,0.4-1.2,0.7-1.1l0.1,0.1l-0.1,0l0.1,0.2l-0.1,0
	l0,0l0,0.2l-0.1,0l0.1,0.1l0,0.1l-0.1,0l-0.1,1c0.8,0,1.4,0,1.7,0c0.2,0.1,0.3,0.3,0.3,0.5c-0.1,0.4-0.5,0.7-1.2,1.1
	c-0.2,0.1-0.4,0.1-0.6,0.1c-0.3-0.1-0.6-0.5-0.8-1.2l-0.1,0c-1,0-1.7-0.1-2.1-0.2l-0.3-0.1L97.8,64.8z M101.6,65.8L101.6,65.8
	c0.4-0.2,0.6-0.4,0.6-0.6l0-0.1c-0.7,0-1,0-1.1,0.1l0,0.1l0.1,0.2C101.3,65.6,101.4,65.6,101.6,65.8z"/>
<path class="st0" d="M45.6,44.4c1.6,0.9,6.8,3.1,10.6,11.6c1.3,1.7,9.5,12.3,22.5,7.1c12.8-5.2,12.2-17.3,11.3-21.1
	c-5.1-14.8-19.1-25.4-35.7-25.4c-20.8,0-37.7,16.9-37.7,37.7c0,1.7,0.1,3.4,0.3,5.1C17.4,57.2,22.8,36.7,45.6,44.4z"/>
<path class="st1" d="M89.9,41.9c0.9,3.8,1.5,16-11.3,21.1c-12.9,5.2-21.2-5.4-22.5-7.1c-3.8-8.5-9-10.7-10.6-11.6
	c-22.8-7.7-28.2,12.8-28.7,15C19.4,77.8,35.2,92,54.3,92C75.1,92,92,75.1,92,54.2C92,49.9,91.3,45.8,89.9,41.9z"/>
<path class="st2" d="M19.5,46.2c1.7-5.8,5.5-14.3,13-12.7c5.5,1.2,4.2,6.7-0.8,7.6c-2.6,0.5-3.9,0.6-6.3,1.9
	c-2.6,1.5-2.5,4.5-4.5,5.5c-1.1,0.7-1.7-0.3-1.6-1.5"/>
<path class="st3" d="M27.5,78.4c0,0-20.2-23.7,7.2-32.3c1.7-0.7,10.7-2.1,19,12.4c2.6,4.1,8.4,16.6,23,16.6c1.7-0.3,10.8-1-1.2,7.3
	C73.8,83.5,51.6,100,27.5,78.4z"/>
<path class="st2" d="M33,31.9c-4.2,1.6-5.9-1.3-2.1-4.3c5.3-4.1,11.1-6.7,17.6-7.9c15.1-2.9,33.7,5.8,38,21.6
	c4.3,16-15.8,26.4-27.2,15.3C51.6,49.2,47.4,30.1,33,31.9"/>
<path class="st4" d="M76.4,47.5c0,0,4.2-1.9,1.6-7c-2.6-5.1,2.6-5.2,5.8-1.6c3.1,3.7,2.6,13.4-3.8,16.2C73.5,58,73,47.2,76.4,47.5z"
	/>
<path class="st4" d="M31.3,37.7c0,0-0.9-1.3-2.5-0.1c-1.6,1.2-1.9-0.6-0.9-1.9c1.1-1.3,4.4-1.7,5.8,0.3C35.1,38,31.4,38.9,31.3,37.7
	z"/>
<path class="st4" d="M73.1,53.5c0,2.3-1.9,4.1-4.2,4.1c-2.3,0-4.2-1.8-4.2-4.1c0-2.3,1.9-4.1,4.2-4.1C71.2,49.4,73.1,51.3,73.1,53.5
	z"/>
<path class="st3" d="M78.1,65.2c0,0,4.9,0.2,8.5-5.2c3.7-5.4,2.5,1.2,2,2.9c-0.5,1.7-2.1,9.7-12.2,10.1
	C66.4,73.4,73.6,65.1,78.1,65.2z"/>
<path class="st5" d="M21.3,52.3l3.3,3.8c0,0,8.9-6.8,20.7-5.1c-1.4,0.4-14.9,1.3-18.8,7.2c1.2,1.3,9.1,8.4,9.1,8.4s4.2-7.1,19.5-7.1
	c-2.1,0.4-15.3,3.7-17.8,8.6c1.2,0.9,7.5,5.2,10.1,5.8c0.5-0.8,6.1-8.2,15.2-7.8c-2,0.7-12,3.9-13.1,8.5c1.3,0.7,4.4,2,10.3,1.8
	c0.3-0.7,2-5.9,11.8-9.3c-1.4,0.9-8.8,5-9.9,9c2.1-0.1,9-0.5,16.6-6.3c0.4-0.9,0.2-3.7,3.6-5.2c-1.2,1.6-1.6,3-1.6,3.8
	c1.2-0.7,6.3-5,7.3-6.6c1-1.6,3.7-0.6-6,7.6c1.6-0.1,3.6,0.6,5.8-1.7c-1.2,1.6-2.5,3-7.4,2.6c-0.8,0.9-10.2,5.9-11.9,6.3
	c1.6,0.7,5,2.2,9,1.8c-2.1,0.7-6.1,2-12-1.3c-2.2,0.5-10.1,1-13.7-0.1c0.7,2,2,6.3,8.6,12c-1-0.4-9.2-5.1-11.8-12.9
	c-1.6-0.6-11-4.8-11.2-5.6c0.3,2.4-2.1,3.3,7.6,18c-1.4-1.3-10.3-8.2-9.8-19.3c-1.6-1.2-8.4-6.9-8.4-6.9s-1,5,4.3,19
	c-1.3-1.7-7.3-9.9-6.3-21C23,58.9,20,55,20,55S19.6,54.7,21.3,52.3z"/>
<path class="st0" d="M1.1,44.6l3.7,0.3c-0.6,0.4-1,0.8-1.3,1.3c-0.3,0.4-0.4,0.9-0.5,1.5c-0.1,1,0.2,1.8,0.8,2.5
	c0.6,0.7,1.5,1,2.5,1.1c1,0.1,1.9-0.1,2.6-0.7c0.7-0.6,1.1-1.3,1.2-2.3c0-0.5,0-1-0.2-1.5c-0.2-0.5-0.5-1-1-1.5l3.7,0.3
	c0.2,0.6,0.4,1.1,0.4,1.7c0.1,0.5,0.1,1.1,0.1,1.6c-0.1,0.7-0.2,1.3-0.4,1.9c-0.2,0.6-0.5,1.1-0.9,1.5c-0.7,0.9-1.6,1.5-2.6,1.9
	c-1,0.4-2.1,0.6-3.3,0.4c-1-0.1-1.8-0.3-2.6-0.7c-0.8-0.4-1.4-0.9-2-1.6c-0.6-0.6-0.9-1.4-1.2-2.1C0,49.5,0,48.6,0,47.7
	c0-0.5,0.2-1.1,0.3-1.6C0.6,45.6,0.8,45.1,1.1,44.6z"/>
<polygon class="st0" points="13.6,44.2 1.7,40.3 2.8,37 11.9,40.1 13.2,36 16,36.9 "/>
<polygon class="st0" points="16.6,35.8 5.8,29.4 9.8,22.8 12.1,24.2 9.9,28 11.8,29.1 13.9,25.6 16.2,26.9 14.1,30.5 15.9,31.5 
	18.1,27.8 20.5,29.3 "/>
<path class="st0" d="M20.5,28.7l-5.6-12l3.1-3l11.8,6l-2.4,2.4l-2-1.2l-3.5,3.4l1.1,2.1L20.5,28.7z M20.7,22.1l2.4-2.4l-3.8-2.1
	c-0.1-0.1-0.3-0.2-0.5-0.3c-0.2-0.2-0.6-0.4-0.9-0.6c0.2,0.3,0.3,0.5,0.5,0.8s0.3,0.5,0.4,0.7L20.7,22.1z"/>
<path class="st0" d="M30.5,19.3L25.1,8.1l3-1.4l7.1,3.7c0.1,0.1,0.4,0.2,0.7,0.5c0.4,0.3,0.8,0.6,1.2,1c-0.3-0.4-0.5-0.8-0.7-1.2
	c-0.2-0.4-0.4-0.7-0.5-0.9l-2.7-5.6l2.9-1.4L41.5,14l-2.9,1.4l-7.1-3.7c-0.1-0.1-0.4-0.2-0.8-0.5c-0.4-0.3-0.8-0.6-1.2-1
	c0.3,0.4,0.5,0.8,0.7,1.2c0.2,0.4,0.4,0.7,0.5,0.9l2.7,5.6L30.5,19.3z"/>
<path class="st0" d="M57.4,12.5l-1.1-1.3c-0.6,0.6-1.2,1-1.9,1.2c-0.7,0.3-1.4,0.4-2.2,0.4c-1.1,0-2-0.3-2.7-1c-0.7-0.7-1-1.5-1-2.5
	c0-0.8,0.2-1.5,0.7-2.1c0.5-0.6,1.2-1.2,2.2-1.7C51,5,50.7,4.6,50.5,4.2c-0.2-0.4-0.3-0.8-0.3-1.3c0-0.8,0.3-1.5,1-2.1
	C51.9,0.3,52.8,0,53.8,0c1.1,0,2,0.3,2.7,0.9c0.7,0.6,1,1.3,1,2.3c0,0.6-0.2,1.2-0.5,1.7c-0.4,0.5-0.9,1-1.6,1.4l1.5,1.5
	C57,7.6,57.3,7.3,57.6,7c0.3-0.3,0.6-0.6,0.9-0.9l1.8,1.9c-0.3,0.4-0.6,0.7-0.9,1c-0.3,0.3-0.6,0.5-0.9,0.8l2.7,2.8L57.4,12.5z
	 M54.6,9.5l-2-2.2c-0.4,0.3-0.7,0.7-0.9,0.9c-0.2,0.3-0.3,0.6-0.3,0.8c0,0.4,0.1,0.7,0.4,0.9c0.3,0.2,0.6,0.4,1,0.4
	c0.3,0,0.6-0.1,0.9-0.2C54,10,54.3,9.8,54.6,9.5z M53.8,4.8l0.4-0.3c0.3-0.2,0.5-0.5,0.7-0.7C55,3.5,55.1,3.3,55.1,3
	c0-0.3-0.1-0.5-0.3-0.7C54.6,2.1,54.3,2,54,2c-0.4,0-0.6,0.1-0.8,0.3c-0.2,0.2-0.3,0.5-0.3,0.8c0,0.1,0,0.3,0.1,0.5s0.2,0.4,0.3,0.5
	L53.8,4.8z"/>
<path class="st1" d="M74.5,12.5l1.1-2.4l5.7,2.8c0,0.1-0.1,0.2-0.1,0.3c0,0.1-0.1,0.2-0.2,0.4c-0.9,1.9-2.2,3.2-3.7,3.8
	c-1.5,0.6-3.1,0.5-4.9-0.4c-0.9-0.4-1.6-0.9-2.1-1.5c-0.5-0.6-0.9-1.3-1.2-2.1c-0.2-0.8-0.3-1.6-0.2-2.5c0.1-0.9,0.3-1.7,0.7-2.5
	c0.4-0.8,0.9-1.5,1.5-2.1c0.6-0.6,1.3-1,2.1-1.3c0.8-0.3,1.6-0.4,2.4-0.3c0.8,0.1,1.6,0.3,2.5,0.7c1,0.5,1.9,1.2,2.5,2
	c0.6,0.8,1,1.8,1.1,2.9l-3.1,0c-0.1-0.6-0.3-1.1-0.5-1.5C77.9,8.3,77.5,8,77,7.8c-0.9-0.4-1.7-0.5-2.5-0.1c-0.8,0.4-1.5,1.1-2,2.1
	c-0.5,1.1-0.7,2-0.5,2.9c0.2,0.9,0.7,1.5,1.6,1.9c0.7,0.4,1.4,0.5,2.1,0.3s1.2-0.5,1.6-1.1L74.5,12.5z"/>
<path class="st1" d="M78.8,20.2l8.3-9.4l2.5,2.2c1,0.9,1.6,1.5,1.9,2c0.3,0.4,0.5,0.9,0.6,1.4c0.1,0.5,0.1,1.1-0.1,1.6
	c-0.2,0.5-0.5,1.1-0.9,1.5c-0.6,0.7-1.3,1.2-2.1,1.3c-0.7,0.2-1.5,0-2.3-0.4l-0.9,5.9L83.2,24l1.2-5.5l-3.2,3.7L78.8,20.2z
	 M85.5,17.3l0.4,0.4c0.5,0.5,1,0.7,1.4,0.7c0.4,0,0.8-0.2,1.1-0.6c0.4-0.5,0.6-0.9,0.6-1.3c-0.1-0.4-0.3-0.8-0.9-1.3l-0.5-0.4
	L85.5,17.3z"/>
<polygon class="st1" points="86.3,27.2 96.5,20 100.7,25.9 98.5,27.5 96.1,24.2 94.3,25.4 96.6,28.6 94.4,30.1 92.2,27 90.4,28.2 
	92.8,31.6 90.5,33.2 "/>
<polygon class="st1" points="91.4,34.8 102.9,29.9 105.7,36.6 103.2,37.6 101.6,33.8 99.6,34.7 101.1,38.3 98.6,39.3 97.1,35.7 
	95.2,36.6 96.8,40.4 94.2,41.5 "/>
<path class="st1" d="M94.9,43.1l12.4-1.6l0.4,3.1l-5.8,5.3c-0.1,0.1-0.4,0.3-0.7,0.5c-0.4,0.2-0.8,0.5-1.3,0.8
	c0.5-0.1,1-0.2,1.4-0.3s0.8-0.1,1.1-0.2l6.1-0.8l0.4,3.1l-12.4,1.6L96,51.5l5.8-5.3c0.1-0.1,0.4-0.3,0.7-0.5
	c0.4-0.2,0.8-0.5,1.3-0.8c-0.5,0.1-1,0.2-1.4,0.3c-0.4,0.1-0.8,0.1-1.1,0.2l-6.1,0.8L94.9,43.1z"/>
</svg>
