<?xml version="1.0" encoding="utf-8"?>
<!-- Generator: Adobe Illustrator 24.1.2, SVG Export Plug-In . SVG Version: 6.00 Build 0)  -->
<svg version="1.1" id="Layer_1" xmlns="http://www.w3.org/2000/svg" xmlns:xlink="http://www.w3.org/1999/xlink" x="0px" y="0px"
	 viewBox="0 0 61.9 60.9" style="enable-background:new 0 0 61.9 60.9;" xml:space="preserve">
<style type="text/css">
	.st0{fill:url(#SVGID_1_);}
	.st1{fill:url(#SVGID_2_);}
	.st2{fill:#FFFFFF;}
	.st3{fill:url(#SVGID_3_);}
</style>
<linearGradient id="SVGID_1_" gradientUnits="userSpaceOnUse" x1="33.7" y1="43.2" x2="33.7" y2="43.2" gradientTransform="matrix(1 0 0 -1 0 62)">
	<stop  offset="0" style="stop-color:#19AFFF"/>
	<stop  offset="1" style="stop-color:#0062E0"/>
</linearGradient>
<path class="st0" d="M33.7,18.8"/>
<linearGradient id="SVGID_2_" gradientUnits="userSpaceOnUse" x1="25.5" y1="34.3" x2="25.5" y2="34.3" gradientTransform="matrix(1 0 0 -1 0 62)">
	<stop  offset="0" style="stop-color:#19AFFF"/>
	<stop  offset="1" style="stop-color:#0062E0"/>
</linearGradient>
<path class="st1" d="M25.5,27.7"/>
<path class="st2" d="M43.5,60.9L43.5,60.9h15.9c1.4,0,2.5-1.1,2.5-2.5V2.5c0-1.4-1.1-2.5-2.5-2.5H2.5C1.1,0,0,1.1,0,2.5v55.9
	c0,1.4,1.1,2.5,2.5,2.5h31.2"/>
<linearGradient id="SVGID_3_" gradientUnits="userSpaceOnUse" x1="30.95" y1="1.1" x2="30.95" y2="62" gradientTransform="matrix(1 0 0 -1 0 62)">
	<stop  offset="0" style="stop-color:#19AFFF"/>
	<stop  offset="1" style="stop-color:#0062E0"/>
</linearGradient>
<path class="st3" d="M43.6,60.9h15.8c1.4,0,2.5-1.1,2.5-2.5V2.5c0-1.4-1.1-2.5-2.5-2.5H2.5C1.1,0,0,1.1,0,2.5v55.9
	c0,1.4,1.1,2.5,2.5,2.5h31.2v-24h-8.2v-9.2h8.2v-8.9c0-5.5,5-9.6,9.4-9.6h9.5v8.5H48c-2,0-4.5,1.6-4.5,3.4v6.7h8.2V37h-8.2
	L43.6,60.9L43.6,60.9z"/>
</svg>
