<?xml version="1.0" encoding="utf-8"?>
<!-- Generator: Adobe Illustrator 15.1.0, SVG Export Plug-In . SVG Version: 6.00 Build 0)  -->
<!DOCTYPE svg PUBLIC "-//W3C//DTD SVG 1.1//EN" "http://www.w3.org/Graphics/SVG/1.1/DTD/svg11.dtd">
<svg version="1.1" id="Layer_1" xmlns="http://www.w3.org/2000/svg" xmlns:xlink="http://www.w3.org/1999/xlink" x="0px" y="0px"
	 width="63.342px" height="62.348px" viewBox="0 0 63.342 62.348" enable-background="new 0 0 63.342 62.348" xml:space="preserve">
<path fill="#FFFFFF" d="M44.344,61.634h15.783c1.379,0,2.5-1.122,2.5-2.5V3.214c0-1.378-1.121-2.5-2.5-2.5H3.214
	c-1.371,0-2.492,1.116-2.498,2.487L0.714,59.14c0.002,1.375,1.124,2.494,2.5,2.494h31.249v-24.03h-8.158v-9.239h8.158v-8.901
	c0-5.514,4.988-9.634,9.447-9.634h9.49v8.472h-4.57c-1.979,0-4.486,1.602-4.486,3.4v6.663h8.227v9.239h-8.227V61.634z"/>
</svg>
