<svg xmlns="http://www.w3.org/2000/svg" width="329" height="116" viewBox="0 0 329 116">
  <defs>
    <style>
      .cls-1 {
        fill: #242126;
        fill-rule: evenodd;
      }
    </style>
  </defs>
  <path id="Heather_Davidson" data-name="Heather Davidson" class="cls-1" d="M95.723,1.016Q81.76,29.381,71.976,53.238H41.155Q50.171,31.69,62.264,7.356q0-.4-1.1-0.77l-1.319.22Q49.071,27.842,38.517,53.238q-4.91.294-7.146,0.293H28.989Q0.258,53.531.257,55.62v0.257Q0.4,56.72,2.346,56.72H4.215q0.477,0,.476-0.843,12.533-1.026,30.637-1.026h2.345Q22.906,89.262,22.905,91.241V91.5l1.319,0.293h0.257a2.245,2.245,0,0,0,2.162-1.319,0.56,0.56,0,0,0-.55-0.55H25.8q5.827-14.7,14.512-34.815,8.1-.55,23.271-0.55,6.742,0.294,7.623.293-23.234,55.63-24,58.6,0,2.09,1.869,2.089h0.77l0.55-.293a3.059,3.059,0,0,0-.55-1.576v-0.22q0.769-2.823,24-58.6h6.6a0.47,0.47,0,0,0,.513-0.55v-0.22a1.187,1.187,0,0,0-.77-0.843h-5.57q8.209-19.459,22.721-50.39Q97.371,2.336,99.974.76a1.284,1.284,0,0,0-1.063-.77,6.772,6.772,0,0,0-3.188,1.026h0ZM83.27,55.4q-3.408,3.665-3.958,3.665v0.513l0.257,0.55a5.512,5.512,0,0,0-1.319,3.188q0,1.539,1.869,1.539h1.539q3.958,0,9.235-5.277V59.065a0.5,0.5,0,0,0-.476-0.55H89.573q-5.5,4.8-8.685,5.021H80.632a12.518,12.518,0,0,1,1.319-3.7q5.827-1.685,5.827-3.115,0-1.649-2.162-1.869H85.139ZM85.4,56.426l-1.1,1.063h-0.22A1.979,1.979,0,0,1,85.4,56.426h0ZM98.3,55.07a8.143,8.143,0,0,1-1.869-.293,5.629,5.629,0,0,0-2.639.77q-3.958,2.493-3.958,5.57v0.77q0.22,0.807,1.613.806H92q2.419,0,4.728-3.188h0.257V59.8a6.223,6.223,0,0,0-.55,2.9v0.293a1.394,1.394,0,0,0,1.612,1.539h0.806q2.968,0,8.979-5.277v-0.77a1.867,1.867,0,0,1-1.063-.293h-0.256a75.086,75.086,0,0,1-7.44,4.8h-0.22q0-2.272,3.152-9.528V53.2a0.544,0.544,0,0,0-.513-0.55h-0.806q-0.4,0-2.382,2.419h0Zm-6.047,5.5a7.141,7.141,0,0,1,3.152-3.958h0.55l0.476,0.257q0,0.624-3.958,3.958h-0.22V60.567ZM115.2,42.537q-3,6.816-3.445,6.816H95.708a1.5,1.5,0,0,0-1.612.806,0.453,0.453,0,0,0,.513.513H111.54L89.588,102.125q0,0.587,1.319.806,1.539,0,3.188-3.664,0-.843-0.55-0.843,20.339-47.275,20.339-47.751h58.342L173,51.222h1.027q4.8,0,4.8-.77V49.61l-1.319-.257H114.655q2.381-5.46,2.382-6.6a0.5,0.5,0,0,0-.513-0.513h-0.807ZM125.289,30.48l0.257,1.319q-10.554,26.24-12.13,31.956v0.257q0.147,0.77,1.576.77h0.513q1.869,0,5.533-6.3h0.294a12.5,12.5,0,0,0-1.32,4.214v1.063a1.059,1.059,0,0,0,.77.77h2.345q2.2-1.063,6.6-5.79v-0.55a0.443,0.443,0,0,0-.477-0.476h-1.062a40.838,40.838,0,0,1-5.827,4.984,43.205,43.205,0,0,1,1.869-5.534q-0.221-1.319-.807-1.319h-0.769q-2.932,0-6.12,5.277a8.772,8.772,0,0,0,.293-1.063q10.811-26.936,11.1-28.511V31.03A2.164,2.164,0,0,0,126.609,30a2.8,2.8,0,0,0-1.32.476h0Zm7.52,24.92q-3.408,3.665-3.957,3.665v0.513l0.256,0.55a5.515,5.515,0,0,0-1.319,3.188q0,1.539,1.869,1.539H131.2q3.959,0,9.235-5.277V59.065a0.5,0.5,0,0,0-.476-0.55h-0.843q-5.5,4.8-8.686,5.021h-0.256a12.529,12.529,0,0,1,1.319-3.7q5.827-1.685,5.827-3.115,0-1.649-2.162-1.869h-0.477Zm2.126,1.026-1.1,1.063h-0.22a1.978,1.978,0,0,1,1.319-1.063h0Zm5.541-3.188V54.3q0.549,2.419,1.319,2.419a136.3,136.3,0,0,0-7.366,14.512,0.438,0.438,0,0,0,.513.477h1.576q2.163-4.728,7.146-13.449l0.513,0.257a19.333,19.333,0,0,1-.769,2.932q0,1.576,1.869,1.576h0.476q2.712,0,7.146-4.214v-0.55a0.517,0.517,0,0,0-.549-0.513h-0.257q-0.769,0-6.047,3.7h-0.293a10.408,10.408,0,0,0,.843-2.639V57.746a6.255,6.255,0,0,1-1.869-1.026,7.6,7.6,0,0,1,.77-2.419q0-2.639-2.382-2.639h-0.257a2.768,2.768,0,0,0-2.382,1.576h0Zm2.639,0.293V54.3l-0.477-.22a0.478,0.478,0,0,1,.477-0.55h0ZM189.524,31.47h-0.256q2.638-5.313,6.6-14.989,0-.843-0.55-0.843H193.7a10.567,10.567,0,0,0-2.859,3.482,2.03,2.03,0,0,0,1.063.476q-8.979,20.119-10.847,23.747a204.231,204.231,0,0,0-16.088,35.144,1.058,1.058,0,0,0,.806.77h1.539l8.209-17.444q6.743-15.758,10.554-21.585,4.618-8.1,15.539-18.47,11.544-9.235,20.888-9.235a9.434,9.434,0,0,1,4.471,1.026q5.533,3.262,5.534,12.643,0,19.679-19.24,40.128a56.7,56.7,0,0,1-41.447,17.151q-10.005,0-25.067-3.188,0-1.576-2.345-1.576h-1.063a4.951,4.951,0,0,0-3.188.806,1.79,1.79,0,0,1,.293.769,115.149,115.149,0,0,0,31.113,4.508q11.361,0,18.727-2.345,11.983-2.858,25.359-15.062,19.5-21.182,19.5-41.191a25.844,25.844,0,0,0-.55-5.277Q232.145,11.2,224.339,11.2h-2.932q-15.722,0-31.883,20.266h0Zm48.748,23.6a8.149,8.149,0,0,1-1.869-.293,5.632,5.632,0,0,0-2.639.77q-3.957,2.493-3.957,5.57v0.77q0.219,0.807,1.612.806h0.55q2.418,0,4.727-3.188h0.257V59.8a6.216,6.216,0,0,0-.55,2.9v0.293a1.393,1.393,0,0,0,1.612,1.539h0.807q2.968,0,8.978-5.277v-0.77a1.87,1.87,0,0,1-1.063-.293h-0.256a75.056,75.056,0,0,1-7.439,4.8h-0.22q0-2.272,3.151-9.528V53.2a0.544,0.544,0,0,0-.513-0.55h-0.806q-0.4,0-2.382,2.419h0Zm-6.047,5.5a7.14,7.14,0,0,1,3.152-3.958h0.55l0.476,0.257q0,0.624-3.958,3.958h-0.22V60.567Zm22.362-5.607q0,0.147.477,2.126-4.766,6.56-7.073,8.429,0-1.319,2.638-8.685V56.536l-1.319-.257q-2.161,1.906-3.481,9.491a1.868,1.868,0,0,0,1.869,1.319h0.293q2.527,0,8.135-8.685a4.432,4.432,0,0,0,2.639,1.319h1.319a0.486,0.486,0,0,0,.55-0.55v-0.77a3.377,3.377,0,0,1-3.188-1.576V56.536l2.125-3.408V51.552l-1.026-.293q-2.529,0-3.958,3.7h0Zm12.174-11.4a0.47,0.47,0,0,0,.55.513h0.77a15.83,15.83,0,0,0,3.188-.77V41.694h-1.613q-2.9,1.5-2.895,1.869h0ZM262.51,54.411a2.059,2.059,0,0,0,.293.77q-2.931,6.6-2.931,8.465a1.393,1.393,0,0,0,1.612,1.539h0.806a24.593,24.593,0,0,0,9.235-5.79V58.588a2.758,2.758,0,0,1-1.1-.22h-0.22a64.7,64.7,0,0,1-7.7,4.984V62.033q2.639-6.267,2.639-7.146V54.631a1.06,1.06,0,0,0-.77-0.77h-1.026Zm33.063-30.454q-3.151,7.4-7.659,16.088A155.548,155.548,0,0,1,279.522,55.4h-0.293a3.743,3.743,0,0,0-2.346-1.319H276.59l-1.319.22q-4.838,5.277-4.984,8.722v0.293a0.421,0.421,0,0,0,.476.476h1.869a6.168,6.168,0,0,0,2.932-1.319q2.674-2.639,3.958-2.639,0-1.685,2.345-4.214-9.236,21.036-9.235,22.428,0.183,0.806,1.613.806h0.219l0.807-.55a1.97,1.97,0,0,0-.257-0.77L297.7,24.507q0-.77-0.55-0.77h-1.026ZM276.59,55.877q0.513,0,.77,1.612v0.257A11.761,11.761,0,0,1,272.925,62a14.662,14.662,0,0,1,3.665-6.12h0Zm11,0.989v0.843q2.346,4.618,2.346,6.047a7.412,7.412,0,0,0-2.9,2.345v1.063h1.575a3.044,3.044,0,0,0,3.152-2.089,24.5,24.5,0,0,0,9.785-5.827v-0.22a0.507,0.507,0,0,0-.55-0.55h-1.063q-6.046,4.727-7.915,4.728a10.144,10.144,0,0,0-1.576-4.178q3.444-2.858,3.445-3.738a1.636,1.636,0,0,0-1.869-1.832H291q-2.6,0-3.409,3.408h0Zm3.958-2.089h0.22a4.39,4.39,0,0,1-2.089,2.382,2.539,2.539,0,0,1,1.869-2.382h0Zm12.724,1.283a9.194,9.194,0,0,0-3.958,7.623v0.293a1.753,1.753,0,0,0,1.026,1.8h2.382q2.125-1.355,2.126-2.345,4.251,0,7.916-4.251V58.7a2.017,2.017,0,0,1-.807-0.293,2.112,2.112,0,0,0-1.062.293,14.957,14.957,0,0,1-4.984,3.408q0.77-3.518.769-3.7-0.44-2.639-1.832-2.639Zm1.319,2.089v1.026H305.3V58.149h0.293ZM305.3,59.468v1.026h-0.256V59.468H305.3Zm-1.319,3.408a2.446,2.446,0,0,1-1.319,1.576H302.4v-0.77l0.257-2.639a8.422,8.422,0,0,0,1.319,1.832h0Zm12.137-4.4h-0.293l0.293-.55V57.416a0.531,0.531,0,0,0-.549-0.55H314.8q-3.408,3.592-3.408,6.6v0.293a0.456,0.456,0,0,0,.476.55h1.869q0.624,0,7.11-8.209H321.1q-3.115,7-3.115,8.209v1.319l1.32,0.22h1.026q2.711,0,8.428-6.816V58.735a0.516,0.516,0,0,0-.513-0.55h-1.319q-5.937,5.827-6.6,5.827,3.151-7.256,3.151-8.465V54.521a1.139,1.139,0,0,0-.769-0.77h-1.063q-1.978,0-5.534,4.727h0Z"/>
</svg>
