<?xml version="1.0" encoding="utf-8"?>
<!-- Generator: Adobe Illustrator 24.1.2, SVG Export Plug-In . SVG Version: 6.00 Build 0)  -->
<svg version="1.1" id="Layer_1" xmlns="http://www.w3.org/2000/svg" xmlns:xlink="http://www.w3.org/1999/xlink" x="0px" y="0px"
	 viewBox="0 0 22.1 21.6" style="enable-background:new 0 0 22.1 21.6;" xml:space="preserve">
<style type="text/css">
	.st0{fill-rule:evenodd;clip-rule:evenodd;fill:#FFFFFF;}
</style>
<desc>Created with Sketch.</desc>
<g>
	<g>
		<path class="st0" d="M13,15.6c0-0.6-0.5-1-1-1h-2c-0.6,0-1,0.4-1,1l0-4h4L13,15.6L13,15.6z M10.3,0.3c0.4-0.4,1-0.4,1.4,0l9.9,9.9
			c0.8,0.8,0.5,1.4-0.6,1.4H1c-1.1,0-1.4-0.6-0.6-1.4L10.3,0.3z M2,11.6h7v9c0,0.5-0.4,1-1,1H3c-0.6,0-1-0.5-1-1V11.6z M13,11.6h7v9
			c0,0.5-0.4,1-1,1h-5c-0.6,0-1-0.5-1-1V11.6z"/>
	</g>
</g>
</svg>
