<?xml version="1.0" encoding="utf-8"?>
<!-- Generator: Adobe Illustrator 24.1.2, SVG Export Plug-In . SVG Version: 6.00 Build 0)  -->
<svg version="1.1" id="Layer_1" xmlns="http://www.w3.org/2000/svg" xmlns:xlink="http://www.w3.org/1999/xlink" x="0px" y="0px"
	 viewBox="0 0 480.2 426.5" style="enable-background:new 0 0 480.2 426.5;" xml:space="preserve">
<style type="text/css">
	.st0{fill:#FFFFFF;stroke:#FFFFFF;stroke-width:11;stroke-miterlimit:10;}
</style>
<g>
	<path class="st0" d="M472.5,213.4c7.5-24.3-4.6-47.4-27.3-52.7c-4.3-1-8.9-1.3-13.4-1.3c-31.8-0.1-63.7,0-95.5,0
		c-1.9,0-3.9,0-6.2,0c1.9-11.8,4.1-22.7,5.4-33.8c1.4-11.7,3.8-23.6,2.6-35.1c-2.4-24.5-12.2-46.9-23.2-68.7
		c-1.6-3.1-4.4-5.9-7.3-7.9c-15.5-10.9-40-11.2-55.8-0.8c-9.1,5.9-13.7,14.2-13.4,25.2c0.5,16.3,0.8,32.7,1,49c0,2.9-0.6,6.1-2,8.5
		c-12.6,22.1-25.2,44.3-38.5,66c-5.6,9.2-12.7,17.5-19.2,26.2c-2.6,3.5-5.5,5.3-10.2,3.2c-2.2-1-4.9-0.9-7.4-0.9
		c-43.7,0-87.3,0-131,0c-15.9,0-25.4,9.1-25.5,25c-0.1,61-0.1,122,0,183.1c0,13,8.9,22.4,21.8,22.5c40.5,0.2,81,0.2,121.5,0
		c12.5-0.1,21.1-9.1,21.9-21.5c0.1-1.3,0.3-2.5,0.5-4.6c2.5,1.3,4.6,2.3,6.5,3.4c9.4,5.9,19.3,9.2,30.6,9.2c59-0.2,118-0.1,177-0.2
		c5.6,0,11.3-0.4,16.9-1.1c32.6-4.5,52-33.7,43.1-64.9c-0.9-3.3-0.4-5.4,1.4-8.1c9.1-13.5,13.1-28,7.5-44c-1.1-3.1-0.7-5,1.1-7.6
		c9.9-14,13.5-29.1,7.3-45.8c-0.5-1.4,0.4-3.6,1.1-5.2C466.8,224.6,470.6,219.3,472.5,213.4z M142.7,391.7c0,1.5-0.2,2.9-0.4,4.8
		c-37.7,0-74.8,0-112.4,0c-0.1-2-0.2-3.8-0.2-5.6c0-57,0-114-0.1-171c0-4.5,1.1-6,5.8-5.9c34,0.2,68,0.2,101.9,0
		c4,0,5.5,0.8,5.5,5.2C142.7,276.7,142.7,334.2,142.7,391.7z M445.5,216.5c-3.4,5.6-8.3,10-14.7,11.2c-5.8,1.1-6.6,4.5-6.7,9.3
		c2.5,1,5,1.9,7.3,3.1c8.2,4.2,11.5,11.6,8.9,20.5c-2.8,9.6-9,16.7-18.6,19.2c-5.8,1.5-6.3,4.6-6.7,9.3c1.6,0.6,3,1,4.3,1.5
		c11,4,15.3,13,11.2,23.9c-3.5,9.3-9.8,15.8-19.9,17.8c-5.1,1-3.5,5.2-4.7,8.3c0.8,0.4,1.3,1,1.9,1c10,1.2,15.6,11.4,11.8,22.7
		c-3.9,11.7-15.1,18.7-30.6,18.8c-32.2,0.1-64.3,0.1-96.5,0.1c-27,0-54-0.2-81,0.1c-8.6,0.1-16-2.1-23-6.8c-7-4.7-14-9.9-24.2-8.1
		c0-2.9,0-4.9,0-6.9c0-42.7,0.1-85.4-0.1-128c0-4.2,1.2-6.7,4.9-8.8c19.2-10.4,34.1-25.3,45.3-44c14.6-24.4,29.3-48.8,43.9-73.3
		c3.9-6.6,5.2-13.8,4.9-21.6c-0.7-15.3-0.6-30.7-1.1-46c-0.1-3.9,1.2-6.3,4.6-7.9c8.4-4.2,16.8-3.1,25.2,0.1c1.1,0.4,2,1.7,2.5,2.9
		c9.2,18.9,17.7,38.3,19.8,59.4c0.8,8.6-1,17.5-2.4,26.2c-3.3,20-7,40-10.6,60c-0.1,0.8-0.2,1.6-0.3,3.1c2.2,0,4.2,0,6.1,0
		c40.3,0,80.7,0,121,0c8,0,15.7,0.7,19.8,8.7C452.2,200.7,450.2,208.8,445.5,216.5z"/>
</g>
</svg>
