<svg xmlns="http://www.w3.org/2000/svg" width="16.03" height="22.281" viewBox="0 0 16.03 22.281">
  <defs>
    <style>
      .cls-1 {
        fill: #2fb905;
        fill-rule: evenodd;
      }
    </style>
  </defs>
  <path id="phone" class="cls-1" d="M1074.44,30.388l2.25,4.014a1.239,1.239,0,0,1-.42,1.69l-0.77.422c-1.41.845-1.27,1.831-.63,2.957l2.88,4.929c0.63,1.127,1.48,1.831,2.88.986l0.78-.423a1.242,1.242,0,0,1,1.68.423l2.25,4.014a1.15,1.15,0,0,1-.42,1.619,5.6,5.6,0,0,1-6.75-.211c-2.74-2.042-8.16-11.548-8.58-14.857a5.526,5.526,0,0,1,3.17-5.985,1.242,1.242,0,0,1,1.68.423h0Z" transform="translate(-1069.5 -29.781)"/>
</svg>
