<?xml version="1.0" encoding="utf-8"?>
<!-- Generator: Adobe Illustrator 24.1.2, SVG Export Plug-In . SVG Version: 6.00 Build 0)  -->
<svg version="1.1" id="Layer_1" xmlns="http://www.w3.org/2000/svg" xmlns:xlink="http://www.w3.org/1999/xlink" x="0px" y="0px"
	 viewBox="0 0 16 22.2" style="enable-background:new 0 0 16 22.2;" xml:space="preserve">
<style type="text/css">
	.st0{fill-rule:evenodd;clip-rule:evenodd;fill:#FFFFFF;}
</style>
<path id="phone" class="st0" d="M4.9,0.6l2.2,4c0.3,0.6,0.2,1.3-0.4,1.7L6,6.7c-1.4,0.8-1.3,1.8-0.6,3l2.9,4.9
	c0.6,1.1,1.5,1.8,2.9,1l0.8-0.4c0.6-0.3,1.3-0.1,1.7,0.4l2.2,4c0.3,0.5,0.2,1.2-0.4,1.6c0,0,0,0-0.1,0c-2,1.4-4.8,1.4-6.8-0.2
	C5.9,19,0.5,9.5,0.1,6.2c-0.4-2.5,0.9-4.9,3.2-6C3.8-0.2,4.6,0,4.9,0.6L4.9,0.6L4.9,0.6z"/>
</svg>
