<?xml version="1.0" encoding="utf-8"?>
<!-- Generator: Adobe Illustrator 15.1.0, SVG Export Plug-In . SVG Version: 6.00 Build 0)  -->
<!DOCTYPE svg PUBLIC "-//W3C//DTD SVG 1.1//EN" "http://www.w3.org/Graphics/SVG/1.1/DTD/svg11.dtd">
<svg version="1.1" id="Layer_1" xmlns="http://www.w3.org/2000/svg" xmlns:xlink="http://www.w3.org/1999/xlink" x="0px" y="0px"
	 width="22.018px" height="21.762px" viewBox="0 0 22.018 21.762" enable-background="new 0 0 22.018 21.762" xml:space="preserve">
<path opacity="0.1" fill="#FFFFFF" d="M8.911,0.519l3.616,6.253L11.02,7.675l5.349,1.432l1.732-5.349l-1.657,0.829l-2.185-3.691
	C14.259,0.896,12.828-0.837,8.911,0.519z M22.018,14.304l-3.39-6.327l-1.356,2.335h-2.787l2.261,3.917L22.018,14.304z M21.792,15.51
	h-7.231v-1.809l-3.917,3.917l3.766,4.144l0.075-1.808l4.294-0.076C18.779,19.878,21.039,19.502,21.792,15.51z M3.336,19.954
	l7.156,0.15L9.137,17.77l1.431-2.411h-4.52L3.336,19.954z M2.433,19.125l3.54-6.252l1.582,0.903L6.124,8.429l-5.499,1.13
	l1.582,1.055l-2.109,3.69C0.098,14.304-0.731,16.488,2.433,19.125z M7.781,0.896L4.015,7.072h2.712l1.355,2.411l2.26-3.918
	L7.781,0.896z"/>
</svg>
